<?xml version="1.0" encoding="iso-8859-1"?>
<!-- Generator: Adobe Illustrator 19.0.0, SVG Export Plug-In . SVG Version: 6.00 Build 0)  -->
<svg xmlns="http://www.w3.org/2000/svg" xmlns:xlink="http://www.w3.org/1999/xlink" version="1.1" id="Layer_1" x="0px" y="0px" viewBox="0 0 370.909 370.909" style="enable-background:new 0 0 370.909 370.909;" xml:space="preserve" width="512px" height="512px">
<g>
	<g>
		<path d="M330.466,81.957L252.219,3.709C249.745,1.236,247.272,0,243.564,0H58.109C45.745,0,34.618,11.128,34.618,23.491v323.927    c0,12.364,11.128,23.491,23.491,23.491H312.8c13.6,0,23.491-11.128,23.491-23.491V92.728    C336.291,87.802,334.102,83.978,330.466,81.957z M255.927,42.036l38.327,38.327h-32.145c-3.709,0-6.182-2.472-6.182-6.182    L255.927,42.036z M311.564,346.182H59.345v-0.001V24.727H231.2v49.455c0,16.073,14.836,30.909,30.909,30.909h49.455V346.182z" fill="#FFFFFF"/>
	</g>
</g>
<g>
	<g>
		<path d="M278.181,207.71H163.199c-7.418,0-12.364,4.945-12.364,12.364c0,7.418,4.945,12.364,12.364,12.364h114.982    c6.182,0,12.364-4.945,12.364-12.364C290.544,212.655,285.599,207.71,278.181,207.71z" fill="#FFFFFF"/>
	</g>
</g>
<g>
	<g>
		<path d="M278.181,149.6H163.199c-7.418,0-12.364,4.945-12.364,12.364s4.945,12.364,12.364,12.364h114.982    c6.182,0,12.364-4.945,12.364-12.364C290.544,154.545,285.599,149.6,278.181,149.6z" fill="#FFFFFF"/>
	</g>
</g>
<g>
	<g>
		<path d="M278.181,265.818H163.199c-7.418,0-12.364,4.945-12.364,12.364c0,7.418,4.945,12.364,12.364,12.364h114.982    c6.182,0,12.364-4.945,12.364-12.364C290.544,270.764,285.599,265.818,278.181,265.818z" fill="#FFFFFF"/>
	</g>
</g>
<g>
	<g>
		<path d="M138.474,129.817c-4.945-4.945-12.365-4.946-17.31,0l-16.072,16.072l-2.473-2.473c-4.945-4.946-12.364-4.946-17.309,0    c-4.945,4.945-4.945,12.364,0,17.309l11.128,11.128c2.473,2.473,4.945,3.709,8.655,3.709c2.473,0,6.182-1.236,8.655-3.709    l24.727-24.727C143.419,142.181,143.419,134.763,138.474,129.817z" fill="#FFFFFF"/>
	</g>
</g>
<g>
	<g>
		<path d="M138.474,186.691c-4.945-4.945-12.365-4.945-17.31,0l-16.072,16.072l-2.473-2.473c-4.945-4.945-12.364-4.945-17.309,0    c-4.945,4.945-4.945,12.364,0,17.309l11.128,11.128c2.473,2.473,4.945,3.709,8.655,3.709c2.473,0,6.182-1.237,8.655-3.709    L138.474,204C143.419,199.054,143.419,191.636,138.474,186.691z" fill="#FFFFFF"/>
	</g>
</g>
<g>
	<g>
		<path d="M138.474,243.563c-4.945-4.945-12.365-4.946-17.31,0l-16.072,16.072l-2.473-2.473c-4.945-4.945-12.364-4.945-17.309,0    c-4.945,4.945-4.945,12.364,0,17.309L96.437,285.6c2.473,2.473,4.945,3.709,8.655,3.709c2.473,0,6.182-1.236,8.655-3.709    l24.727-24.727C143.419,255.927,143.419,248.509,138.474,243.563z" fill="#FFFFFF"/>
	</g>
</g>
<g>
</g>
<g>
</g>
<g>
</g>
<g>
</g>
<g>
</g>
<g>
</g>
<g>
</g>
<g>
</g>
<g>
</g>
<g>
</g>
<g>
</g>
<g>
</g>
<g>
</g>
<g>
</g>
<g>
</g>
</svg>
